<!-- <svg xmlns="http://www.w3.org/2000/svg" version="1.1" xmlns:xlink="http://www.w3.org/1999/xlink" xmlns:svgjs="http://svgjs.com/svgjs" width="1440" height="800" preserveAspectRatio="none" viewBox="0 0 1440 800">
    <g mask="url(&quot;#SvgjsMask1067&quot;)" fill="none">
        <rect width="1440" height="800" x="0" y="0" fill="rgba(23, 79, 137, 1)"></rect>
        <path d="M0,330.388C59.768,317.926,102.346,269.56,159.584,248.318C238.837,218.906,343.809,246.203,399.114,182.269C453.736,119.125,439.635,21.139,427.565,-61.475C415.514,-143.957,391.445,-229.483,330.628,-286.491C271.868,-341.571,186.973,-361.753,106.437,-362.492C36.755,-363.132,-19.52,-313.472,-85.242,-290.308C-146.467,-268.729,-213.773,-268.739,-266.601,-231.011C-328.517,-186.792,-398.558,-134.171,-409.334,-58.853C-420.11,16.463,-355.798,78.962,-320.603,146.415C-287.436,209.982,-271.157,289.476,-208.969,325.162C-147.285,360.558,-69.621,344.904,0,330.388" fill="#123f6e"></path>
        <path d="M1440 1155.243C1518.378 1175.0059999999999 1612.268 1217.226 1677.179 1169.057 1743.049 1120.176 1706.03 1011.5550000000001 1736.341 935.335 1764.422 864.723 1857.2440000000001 816.778 1847.232 741.449 1837.2359999999999 666.2429999999999 1742.844 637.766 1689.606 583.715 1640.615 533.976 1607.966 469.984 1546.764 436.394 1475.9279999999999 397.517 1392.066 350.665 1316.341 378.857 1240.315 407.161 1228.62 509.625 1178.57 573.469 1131.811 633.115 1057.275 669.854 1032.157 741.361 1004.63 819.726 984.906 918.374 1033.842 985.486 1083.6689999999999 1053.819 1190.94 1033.516 1268.969 1066.129 1329.508 1091.432 1376.377 1139.201 1440 1155.243" fill="#1c5fa4"></path>
    </g>
    <defs>
        <mask id="SvgjsMask1067">
            <rect width="1440" height="800" fill="#ffffff"></rect>
        </mask>
    </defs>
</svg> -->
<svg xmlns="http://www.w3.org/2000/svg" version="1.1" xmlns:xlink="http://www.w3.org/1999/xlink" xmlns:svgjs="http://svgjs.com/svgjs" width="393" height="800" preserveAspectRatio="none" viewBox="0 0 393 800">
    <g mask="url(&quot;#SvgjsMask1110&quot;)" fill="none">
        <rect width="393" height="800" x="0" y="0" fill="rgba(222, 226, 231, 1)"></rect>
        <path d="M0,226.201C41.043,234.03,80.803,200.422,108.97,169.561C134.055,142.076,131.46,100.918,145.716,66.546C159.292,33.813,189.118,7.989,190.667,-27.414C192.339,-65.628,176.98,-102.925,154.482,-133.86C130.749,-166.492,100.119,-198.277,60.573,-206.292C21.807,-214.149,-16.186,-193.305,-51.568,-175.623C-82.1,-160.365,-103.891,-134.934,-128.837,-111.638C-157.08,-85.263,-199.146,-67.551,-207.658,-29.857C-216.208,8.007,-195.133,47.449,-171.758,78.439C-150.841,106.17,-111.504,109.877,-85.172,132.53C-52.519,160.621,-42.311,218.13,0,226.201" fill="#aab4c1"></path>
        <path d="M393 998.123C428.764 990.814 455.956 965.476 486.451 945.413 516.575 925.594 549.734 910.478 570.75 881.176 594.682 847.808 624.652 807.814 613.482 768.299 602.138 728.168 548.841 719.591 517.347 692.253 491.514 669.829 475.873 637.3679999999999 445.201 622.221 411.003 605.332 372.821 598.002 334.907 602.154 292.123 606.84 240.013 611.059 216.712 647.246 193.042 684.008 224.989 731.903 223.233 775.591 221.724 813.14 198.922 848.205 207.163 884.869 216.312 925.572 235.663 967.677 271.288 989.388 306.73900000000003 1010.9929999999999 352.325 1006.436 393 998.123" fill="#ffffff"></path>
    </g>
    <defs>
        <mask id="SvgjsMask1110">
            <rect width="393" height="800" fill="#ffffff"></rect>
        </mask>
    </defs>
</svg>